# xmcd
# 
# Track frame offsets:
#     150
#     23275
#     41531
#     58184
#     78113
#     101221
#     119457
#     136101
# 
# Disc length: 2078
# 
# Revision: 0
# Processed by: cddbd v1.5.2PL0 Copyright (c) Steve Scherf et al.
# Submitted via: fre:ac v1.0.17
# 
DISCID=5c081c08
DTITLE=Rev. from DVL - 君がいて僕がいた/愛がーる [Web盤]
DYEAR=2015
DGENRE=JPop
TTITLE0=君がいて僕がいた
TTITLE1=愛がーる
TTITLE2=宝物
TTITLE3=永遠の調べ
TTITLE4=君がいて僕がいた <Instrumental>
TTITLE5=愛がーる <Instrumental>
TTITLE6=宝物 <Instrumental>
TTITLE7=永遠の調べ <Instrumental>
EXTD=
EXTT0=
EXTT1=
EXTT2=
EXTT3=
EXTT4=
EXTT5=
EXTT6=
EXTT7=
PLAYORDER=
